<mxfile host="65bd71144e">
    <diagram id="93RceHGSjPdTyX5fZcqp" name="Page-1">
        <mxGraphModel dx="2170" dy="765" grid="1" gridSize="10" guides="1" tooltips="1" connect="1" arrows="1" fold="1" page="1" pageScale="1" pageWidth="850" pageHeight="1100" math="0" shadow="0">
            <root>
                <mxCell id="0"/>
                <mxCell id="1" parent="0"/>
                <mxCell id="100" value="Alternative" style="shape=umlFrame;whiteSpace=wrap;html=1;" vertex="1" parent="1">
                    <mxGeometry x="-770" y="770" width="910" height="110" as="geometry"/>
                </mxCell>
                <mxCell id="106" value="" style="edgeStyle=none;html=1;" edge="1" parent="1" source="98" target="100">
                    <mxGeometry relative="1" as="geometry"/>
                </mxCell>
                <mxCell id="98" value="Condition" style="shape=umlFrame;tabWidth=110;tabHeight=30;tabPosition=left;html=1;boundedLbl=1;labelInHeader=1;width=100;height=20;" vertex="1" parent="1">
                    <mxGeometry x="-770" y="207.07" width="910" height="562.93" as="geometry"/>
                </mxCell>
                <mxCell id="99" value="[if email exists in storage and password is correct]" style="text" vertex="1" parent="98">
                    <mxGeometry width="100" height="20" relative="1" as="geometry">
                        <mxPoint x="9" y="20" as="offset"/>
                    </mxGeometry>
                </mxCell>
                <mxCell id="2" value="web-platform" style="shape=umlLifeline;perimeter=lifelinePerimeter;whiteSpace=wrap;html=1;container=1;collapsible=0;recursiveResize=0;outlineConnect=0;" parent="1" vertex="1">
                    <mxGeometry x="-540" y="160" width="130.66" height="690" as="geometry"/>
                </mxCell>
                <mxCell id="37" value="" style="edgeStyle=elbowEdgeStyle;fontSize=12;html=1;endArrow=blockThin;endFill=1;" parent="2" edge="1" source="4">
                    <mxGeometry width="160" relative="1" as="geometry">
                        <mxPoint x="-39.869565217391255" y="390" as="sourcePoint"/>
                        <mxPoint x="70" y="390" as="targetPoint"/>
                        <Array as="points">
                            <mxPoint x="40.5" y="390"/>
                            <mxPoint x="60.5" y="400"/>
                            <mxPoint x="90.5" y="320"/>
                            <mxPoint x="70.5" y="310"/>
                            <mxPoint x="50.5" y="290"/>
                        </Array>
                    </mxGeometry>
                </mxCell>
                <mxCell id="92" value="Updated resident entity" style="html=1;verticalAlign=bottom;endArrow=open;dashed=1;endSize=8;" edge="1" parent="2" source="58">
                    <mxGeometry relative="1" as="geometry">
                        <mxPoint x="360.18000000000006" y="550" as="sourcePoint"/>
                        <mxPoint x="60.003529411764646" y="550" as="targetPoint"/>
                        <Array as="points">
                            <mxPoint x="195.68" y="550"/>
                        </Array>
                    </mxGeometry>
                </mxCell>
                <mxCell id="97" value="" style="html=1;points=[];perimeter=orthogonalPerimeter;" vertex="1" parent="2">
                    <mxGeometry x="60.33" y="60" width="10" height="530" as="geometry"/>
                </mxCell>
                <mxCell id="3" value="storage-service" style="shape=umlLifeline;perimeter=lifelinePerimeter;whiteSpace=wrap;html=1;container=1;collapsible=0;recursiveResize=0;outlineConnect=0;" parent="1" vertex="1">
                    <mxGeometry x="45" y="160" width="100" height="680" as="geometry"/>
                </mxCell>
                <mxCell id="4" value="" style="shape=umlLifeline;participant=umlActor;perimeter=lifelinePerimeter;whiteSpace=wrap;html=1;container=1;collapsible=0;recursiveResize=0;verticalAlign=top;spacingTop=36;outlineConnect=0;" parent="1" vertex="1">
                    <mxGeometry x="-690" y="160" width="20" height="690" as="geometry"/>
                </mxCell>
                <mxCell id="8" value="" style="edgeStyle=elbowEdgeStyle;fontSize=12;html=1;endArrow=blockThin;endFill=1;" parent="1" source="4" target="2" edge="1">
                    <mxGeometry width="160" relative="1" as="geometry">
                        <mxPoint x="-610" y="220" as="sourcePoint"/>
                        <mxPoint x="-455.79999999999995" y="229.60000000000002" as="targetPoint"/>
                        <Array as="points">
                            <mxPoint x="-560" y="230"/>
                            <mxPoint x="-580" y="250"/>
                        </Array>
                    </mxGeometry>
                </mxCell>
                <mxCell id="9" value="Provides login &amp;amp; password" style="text;html=1;align=center;verticalAlign=middle;resizable=0;points=[];autosize=1;strokeColor=none;fillColor=none;" parent="1" vertex="1">
                    <mxGeometry x="-645" y="210" width="160" height="20" as="geometry"/>
                </mxCell>
                <mxCell id="10" value="" style="edgeStyle=elbowEdgeStyle;fontSize=12;html=1;endArrow=blockThin;endFill=1;" parent="1" source="2" edge="1">
                    <mxGeometry width="160" relative="1" as="geometry">
                        <mxPoint x="-443.55999999999995" y="249.89999999999998" as="sourcePoint"/>
                        <mxPoint x="-210" y="250" as="targetPoint"/>
                        <Array as="points">
                            <mxPoint x="-340" y="250"/>
                            <mxPoint x="-359.39" y="300"/>
                            <mxPoint x="-379.39" y="320"/>
                        </Array>
                    </mxGeometry>
                </mxCell>
                <mxCell id="22" value="" style="html=1;verticalAlign=bottom;endArrow=open;dashed=1;endSize=8;exitX=0.006;exitY=0.191;exitDx=0;exitDy=0;exitPerimeter=0;entryX=0.965;entryY=0.115;entryDx=0;entryDy=0;entryPerimeter=0;" parent="1" edge="1">
                    <mxGeometry relative="1" as="geometry">
                        <mxPoint x="90.05999999999995" y="310.95000000000005" as="sourcePoint"/>
                        <mxPoint x="-204.9999999999999" y="308.82" as="targetPoint"/>
                        <Array as="points"/>
                    </mxGeometry>
                </mxCell>
                <mxCell id="38" value="" style="edgeStyle=elbowEdgeStyle;fontSize=12;html=1;endArrow=blockThin;endFill=1;exitX=1.3;exitY=0.969;exitDx=0;exitDy=0;exitPerimeter=0;" parent="1" edge="1">
                    <mxGeometry width="160" relative="1" as="geometry">
                        <mxPoint x="-197" y="675.585" as="sourcePoint"/>
                        <mxPoint x="90" y="660" as="targetPoint"/>
                        <Array as="points">
                            <mxPoint x="-160" y="660"/>
                            <mxPoint x="-90" y="660"/>
                            <mxPoint x="-120" y="640"/>
                            <mxPoint x="-60" y="680"/>
                            <mxPoint x="-150" y="609"/>
                            <mxPoint x="-110" y="589"/>
                            <mxPoint x="-130" y="579"/>
                            <mxPoint x="-150" y="559"/>
                        </Array>
                    </mxGeometry>
                </mxCell>
                <mxCell id="51" value="Saved resident entity" style="html=1;verticalAlign=bottom;endArrow=open;dashed=1;endSize=8;" parent="1" source="3" target="58" edge="1">
                    <mxGeometry relative="1" as="geometry">
                        <mxPoint x="-246.20000000000005" y="699.8599999999999" as="sourcePoint"/>
                        <mxPoint x="-370" y="570" as="targetPoint"/>
                        <Array as="points">
                            <mxPoint x="-70" y="700"/>
                        </Array>
                    </mxGeometry>
                </mxCell>
                <mxCell id="56" value="User" style="text;html=1;align=center;verticalAlign=middle;resizable=0;points=[];autosize=1;strokeColor=none;fillColor=none;" parent="1" vertex="1">
                    <mxGeometry x="-700" y="140" width="40" height="20" as="geometry"/>
                </mxCell>
                <mxCell id="57" value="&lt;b style=&quot;color: rgb(0 , 0 , 0) ; font-family: &amp;#34;helvetica&amp;#34; ; font-size: 17px ; font-style: normal ; letter-spacing: normal ; text-align: center ; text-indent: 0px ; text-transform: none ; word-spacing: 0px ; background-color: rgb(248 , 249 , 250)&quot;&gt;Зміна інформації про жителів мікрорайону&lt;/b&gt;" style="text;whiteSpace=wrap;html=1;" vertex="1" parent="1">
                    <mxGeometry x="-530" y="80" width="520" height="30" as="geometry"/>
                </mxCell>
                <mxCell id="58" value="processing-service" style="shape=umlLifeline;perimeter=lifelinePerimeter;whiteSpace=wrap;html=1;container=1;collapsible=0;recursiveResize=0;outlineConnect=0;" vertex="1" parent="1">
                    <mxGeometry x="-340" y="160" width="270" height="680" as="geometry"/>
                </mxCell>
                <mxCell id="82" value="" style="edgeStyle=elbowEdgeStyle;fontSize=12;html=1;endArrow=blockThin;endFill=1;entryX=1.112;entryY=0.392;entryDx=0;entryDy=0;entryPerimeter=0;exitX=1.394;exitY=0.344;exitDx=0;exitDy=0;exitPerimeter=0;" edge="1" parent="58">
                    <mxGeometry width="160" relative="1" as="geometry">
                        <mxPoint x="143.94000000000005" y="224.96000000000004" as="sourcePoint"/>
                        <mxPoint x="141.12000000000012" y="247.27999999999997" as="targetPoint"/>
                        <Array as="points">
                            <mxPoint x="190" y="230"/>
                            <mxPoint x="390" y="220"/>
                            <mxPoint x="290" y="220"/>
                            <mxPoint x="200.68000000000006" y="120"/>
                            <mxPoint x="181.28999999999996" y="170"/>
                            <mxPoint x="161.28999999999996" y="190"/>
                        </Array>
                    </mxGeometry>
                </mxCell>
                <mxCell id="89" value="" style="edgeStyle=elbowEdgeStyle;fontSize=12;html=1;endArrow=blockThin;endFill=1;entryX=1.112;entryY=0.392;entryDx=0;entryDy=0;entryPerimeter=0;exitX=1.394;exitY=0.344;exitDx=0;exitDy=0;exitPerimeter=0;" edge="1" parent="58">
                    <mxGeometry width="160" relative="1" as="geometry">
                        <mxPoint x="142.82000000000005" y="440" as="sourcePoint"/>
                        <mxPoint x="140.0000000000001" y="461.60000000000014" as="targetPoint"/>
                        <Array as="points">
                            <mxPoint x="188.88" y="450.20000000000005"/>
                            <mxPoint x="388.88" y="440.20000000000005"/>
                            <mxPoint x="288.88" y="440.20000000000005"/>
                            <mxPoint x="199.56000000000006" y="340.2"/>
                            <mxPoint x="180.16999999999996" y="390.20000000000005"/>
                            <mxPoint x="160.16999999999996" y="410.20000000000005"/>
                        </Array>
                    </mxGeometry>
                </mxCell>
                <mxCell id="60" value="validate credentials" style="text;html=1;align=center;verticalAlign=middle;resizable=0;points=[];autosize=1;strokeColor=none;fillColor=none;" vertex="1" parent="1">
                    <mxGeometry x="-370" y="230" width="120" height="20" as="geometry"/>
                </mxCell>
                <mxCell id="61" value="" style="edgeStyle=elbowEdgeStyle;fontSize=12;html=1;endArrow=blockThin;endFill=1;entryX=0.106;entryY=0.065;entryDx=0;entryDy=0;entryPerimeter=0;exitX=1.059;exitY=0.069;exitDx=0;exitDy=0;exitPerimeter=0;" edge="1" parent="1">
                    <mxGeometry width="160" relative="1" as="geometry">
                        <mxPoint x="-199.40999999999985" y="257.08500000000004" as="sourcePoint"/>
                        <mxPoint x="91.05999999999995" y="254.25" as="targetPoint"/>
                        <Array as="points">
                            <mxPoint x="-159.31999999999994" y="260"/>
                            <mxPoint x="-178.71000000000004" y="310"/>
                            <mxPoint x="-198.71000000000004" y="330"/>
                        </Array>
                    </mxGeometry>
                </mxCell>
                <mxCell id="77" value="" style="edgeStyle=elbowEdgeStyle;fontSize=12;html=1;endArrow=blockThin;endFill=1;entryX=-0.182;entryY=0.302;entryDx=0;entryDy=0;entryPerimeter=0;exitX=1.112;exitY=0.302;exitDx=0;exitDy=0;exitPerimeter=0;" edge="1" parent="1">
                    <mxGeometry width="160" relative="1" as="geometry">
                        <mxPoint x="-198.87999999999988" y="365.43000000000006" as="sourcePoint"/>
                        <mxPoint x="88.18000000000029" y="360.9000000000001" as="targetPoint"/>
                        <Array as="points">
                            <mxPoint x="70" y="370"/>
                            <mxPoint x="40" y="370"/>
                            <mxPoint x="-60" y="370"/>
                            <mxPoint x="-149.31999999999994" y="270"/>
                            <mxPoint x="-168.71000000000004" y="320"/>
                            <mxPoint x="-188.71000000000004" y="340"/>
                        </Array>
                    </mxGeometry>
                </mxCell>
                <mxCell id="78" value="Fetch all required data" style="text;html=1;align=center;verticalAlign=middle;resizable=0;points=[];autosize=1;strokeColor=none;fillColor=none;" vertex="1" parent="1">
                    <mxGeometry x="-130.00428571428574" y="330" width="130" height="20" as="geometry"/>
                </mxCell>
                <mxCell id="79" value="hashed password" style="text;html=1;align=center;verticalAlign=middle;resizable=0;points=[];autosize=1;strokeColor=none;fillColor=none;" vertex="1" parent="1">
                    <mxGeometry x="-110" y="287.07" width="110" height="20" as="geometry"/>
                </mxCell>
                <mxCell id="80" value="fetch password for provided &lt;br&gt;email" style="text;html=1;align=center;verticalAlign=middle;resizable=0;points=[];autosize=1;strokeColor=none;fillColor=none;" vertex="1" parent="1">
                    <mxGeometry x="-135" y="225" width="160" height="30" as="geometry"/>
                </mxCell>
                <mxCell id="75" value="" style="html=1;verticalAlign=bottom;endArrow=open;dashed=1;endSize=8;exitX=-0.488;exitY=0.523;exitDx=0;exitDy=0;exitPerimeter=0;" edge="1" parent="1" target="2">
                    <mxGeometry relative="1" as="geometry">
                        <mxPoint x="-214.87999999999988" y="468.19499999999994" as="sourcePoint"/>
                        <mxPoint x="-562.6409890109891" y="339.93000000000006" as="targetPoint"/>
                        <Array as="points">
                            <mxPoint x="-350" y="470"/>
                        </Array>
                    </mxGeometry>
                </mxCell>
                <mxCell id="83" value="&lt;span style=&quot;color: rgb(0 , 0 , 0) ; font-family: &amp;#34;helvetica&amp;#34; ; font-size: 12px ; font-style: normal ; font-weight: 400 ; letter-spacing: normal ; text-align: center ; text-indent: 0px ; text-transform: none ; word-spacing: 0px ; background-color: rgb(248 , 249 , 250) ; display: inline ; float: none&quot;&gt;Process fetched data&lt;/span&gt;" style="text;whiteSpace=wrap;html=1;" vertex="1" parent="1">
                    <mxGeometry x="-135" y="380" width="140" height="30" as="geometry"/>
                </mxCell>
                <mxCell id="84" value="" style="html=1;verticalAlign=bottom;endArrow=open;dashed=1;endSize=8;" edge="1" parent="1" source="2" target="4">
                    <mxGeometry relative="1" as="geometry">
                        <mxPoint x="-409.3399999999998" y="478.9000000000001" as="sourcePoint"/>
                        <mxPoint x="-670.748613445378" y="480" as="targetPoint"/>
                        <Array as="points">
                            <mxPoint x="-545.4" y="480"/>
                        </Array>
                    </mxGeometry>
                </mxCell>
                <mxCell id="85" value="Visualize processed data" style="text;html=1;align=center;verticalAlign=middle;resizable=0;points=[];autosize=1;strokeColor=none;fillColor=none;" vertex="1" parent="1">
                    <mxGeometry x="-650" y="450" width="150" height="20" as="geometry"/>
                </mxCell>
                <mxCell id="86" value="Change resident's name" style="text;html=1;align=center;verticalAlign=middle;resizable=0;points=[];autosize=1;strokeColor=none;fillColor=none;" vertex="1" parent="1">
                    <mxGeometry x="-675" y="520" width="150" height="20" as="geometry"/>
                </mxCell>
                <mxCell id="87" value="" style="edgeStyle=elbowEdgeStyle;fontSize=12;html=1;endArrow=blockThin;endFill=1;entryX=0.076;entryY=0.791;entryDx=0;entryDy=0;entryPerimeter=0;" edge="1" parent="1" source="2">
                    <mxGeometry width="160" relative="1" as="geometry">
                        <mxPoint x="-460.36956521739125" y="600" as="sourcePoint"/>
                        <mxPoint x="-209.24" y="592.815" as="targetPoint"/>
                        <Array as="points">
                            <mxPoint x="-440" y="581"/>
                            <mxPoint x="-390" y="590"/>
                            <mxPoint x="-340" y="600"/>
                            <mxPoint x="-280" y="640"/>
                            <mxPoint x="-370" y="569"/>
                            <mxPoint x="-330" y="549"/>
                            <mxPoint x="-350" y="539"/>
                            <mxPoint x="-370" y="519"/>
                        </Array>
                    </mxGeometry>
                </mxCell>
                <mxCell id="88" value="Updated resident entity" style="text;html=1;align=center;verticalAlign=middle;resizable=0;points=[];autosize=1;strokeColor=none;fillColor=none;" vertex="1" parent="1">
                    <mxGeometry x="-430" y="560" width="140" height="20" as="geometry"/>
                </mxCell>
                <mxCell id="90" value="&lt;span style=&quot;color: rgb(0 , 0 , 0) ; font-family: &amp;#34;helvetica&amp;#34; ; font-size: 12px ; font-style: normal ; font-weight: 400 ; letter-spacing: normal ; text-align: center ; text-indent: 0px ; text-transform: none ; word-spacing: 0px ; background-color: rgb(248 , 249 , 250) ; display: inline ; float: none&quot;&gt;Validate resident entity&lt;/span&gt;" style="text;whiteSpace=wrap;html=1;" vertex="1" parent="1">
                    <mxGeometry x="-140" y="600" width="140" height="30" as="geometry"/>
                </mxCell>
                <mxCell id="91" value="Save updated resident entity" style="text;html=1;align=center;verticalAlign=middle;resizable=0;points=[];autosize=1;strokeColor=none;fillColor=none;" vertex="1" parent="1">
                    <mxGeometry x="-140" y="640" width="170" height="20" as="geometry"/>
                </mxCell>
                <mxCell id="93" value="" style="html=1;verticalAlign=bottom;endArrow=open;dashed=1;endSize=8;" edge="1" parent="1">
                    <mxGeometry relative="1" as="geometry">
                        <mxPoint x="-474.48999999999984" y="740" as="sourcePoint"/>
                        <mxPoint x="-679.9964705882353" y="740" as="targetPoint"/>
                        <Array as="points">
                            <mxPoint x="-544.72" y="740"/>
                        </Array>
                    </mxGeometry>
                </mxCell>
                <mxCell id="95" value="" style="html=1;points=[];perimeter=orthogonalPerimeter;" vertex="1" parent="1">
                    <mxGeometry x="-210" y="225" width="10" height="495" as="geometry"/>
                </mxCell>
                <mxCell id="96" value="" style="html=1;points=[];perimeter=orthogonalPerimeter;" vertex="1" parent="1">
                    <mxGeometry x="90" y="225" width="10" height="485" as="geometry"/>
                </mxCell>
                <mxCell id="104" value="" style="html=1;verticalAlign=bottom;endArrow=open;dashed=1;endSize=8;" edge="1" parent="1">
                    <mxGeometry relative="1" as="geometry">
                        <mxPoint x="-209.99999999999955" y="800" as="sourcePoint"/>
                        <mxPoint x="-480.09857142857163" y="800" as="targetPoint"/>
                        <Array as="points"/>
                    </mxGeometry>
                </mxCell>
                <mxCell id="108" value="Credentials error" style="text;html=1;align=center;verticalAlign=middle;resizable=0;points=[];autosize=1;strokeColor=none;fillColor=none;" vertex="1" parent="1">
                    <mxGeometry x="-385" y="780" width="100" height="20" as="geometry"/>
                </mxCell>
                <mxCell id="109" value="" style="html=1;verticalAlign=bottom;endArrow=open;dashed=1;endSize=8;" edge="1" parent="1">
                    <mxGeometry relative="1" as="geometry">
                        <mxPoint x="-480" y="824" as="sourcePoint"/>
                        <mxPoint x="-679.4385714285717" y="824.29" as="targetPoint"/>
                        <Array as="points"/>
                    </mxGeometry>
                </mxCell>
            </root>
        </mxGraphModel>
    </diagram>
</mxfile>